<?xml version="1.0" encoding="UTF-8"?>
<svg xmlns="http://www.w3.org/2000/svg" viewBox="0 0 477.3414 110.5" role="img" aria-label="Crxate">
  <g fill="currentColor" fill-rule="evenodd">
    <path d="M 263.578125 45.828125 C 296.414062 39.976562 301.363281 87.574219 273.207031 92.5625 C 240.007812 98.445312 234.144531 51.078125 263.578125 45.828125 Z M 390.164062 60.472656 C 394.9375 39.773438 428.574219 39.492188 433.621094 60.484375 Z M 229.148438 51.195312 L 227.195312 56.683594 C 226.210938 68.132812 225.414062 70.136719 226.988281 82.667969 C 230.851562 97.996094 244.046875 109.429688 259.824219 111.089844 C 279.695312 113.183594 285.265625 105.164062 293.398438 95.597656 L 293.554688 109.238281 L 311.167969 108.835938 L 311.480469 91.027344 C 312.9375 92.933594 311.851562 91.359375 313.085938 93.695312 L 316.167969 99.554688 C 317.75 101.824219 319.9375 103.976562 322.207031 105.53125 C 339.886719 117.625 370.371094 110.015625 373.011719 92.996094 C 373.566406 92.09375 375.285156 89.015625 375.34375 92.609375 C 382.738281 103.734375 395.710938 112.722656 416.296875 111.140625 C 432.625 109.882812 447.8125 99.421875 451.355469 86.046875 C 445.277344 85.972656 434.898438 84.359375 430.042969 86.996094 C 427.71875 88.253906 427.65625 89.683594 423.476562 91.441406 C 408.640625 97.683594 392.980469 90.851562 389.460938 76.074219 L 454.800781 75.859375 C 456.308594 47.25 440.488281 27.472656 412.292969 27.105469 C 383.125 26.722656 368.144531 46.519531 369.117188 75.964844 L 356.652344 76.441406 C 356.394531 85.585938 354.433594 91.453125 346.167969 92.777344 C 334.023438 94.722656 332.972656 88.453125 329.375 80.242188 L 329.878906 46.34375 L 370.484375 46.195312 L 370.59375 29.746094 C 361.28125 29.359375 336.800781 30.898438 329.472656 29.03125 L 329.410156 0.996094 L 310.25 1.542969 L 310.230469 58.015625 C 303.429688 40.421875 294.4375 29.039062 272.761719 27.203125 C 254.535156 25.660156 233.296875 35.425781 229.148438 51.195312" />
    <path d="M 80.101562 59.175781 L 96.507812 59.378906 L 96.453125 79.289062 L 82.835938 79.273438 C 76.953125 79.890625 79.917969 84.265625 71.65625 89.535156 C 59.777344 97.113281 35.960938 93.097656 35.054688 70.296875 C 33.914062 41.582031 71.261719 37.425781 80.101562 59.175781 Z M 147.445312 60.328125 L 147.1875 62.546875 L 166.234375 62.570312 C 162.726562 35.71875 147.25 20.074219 118.609375 28.730469 C 101.796875 33.816406 102.125 40.277344 97.253906 49.542969 C 94.289062 44.589844 92.976562 42.371094 89.042969 38.609375 C 78.25 28.289062 62.527344 24.871094 47.273438 28.265625 C 6.109375 37.421875 4.304688 98.527344 45.785156 109.75 C 59.761719 113.53125 78.054688 110.71875 87.839844 100.730469 L 96.328125 91.203125 L 96.515625 109.1875 L 115.890625 108.851562 C 115.992188 95.007812 114.445312 70.789062 116.132812 58.292969 C 118.617188 39.871094 146.773438 41.125 147.445312 60.328125 Z M 180.28125 67.542969 L 152.429688 109.164062 L 175.160156 109.078125 L 194.957031 79.902344 L 215.894531 109.191406 L 239.195312 108.941406 L 209.984375 68.277344 L 237.734375 29.097656 L 214.738281 29.359375 L 195.953125 56.648438 L 177.144531 29.117188 L 153.320312 29.121094 Z M 180.28125 67.542969" />
  </g>
</svg>
